<svg width="605" height="363" viewBox="0 0 605 363" fill="none" xmlns="http://www.w3.org/2000/svg">
<path d="M116.512 215.641C116.512 224.495 114.266 232.372 109.773 239.273C105.281 246.109 98.8034 251.448 90.3398 255.289C81.8763 259.065 71.9479 260.953 60.5547 260.953C51.0495 260.953 43.0742 260.302 36.6289 259C30.1836 257.633 23.4779 255.289 16.5117 251.969V217.594C23.8685 221.37 31.5182 224.332 39.4609 226.48C47.4036 228.564 54.6953 229.605 61.3359 229.605C67.0651 229.605 71.2643 228.629 73.9336 226.676C76.6029 224.658 77.9375 222.086 77.9375 218.961C77.9375 217.008 77.3841 215.315 76.2773 213.883C75.2357 212.385 73.5104 210.888 71.1016 209.391C68.7578 207.893 62.4427 204.833 52.1562 200.211C42.8464 195.979 35.8477 191.878 31.1602 187.906C26.5378 183.935 23.0872 179.378 20.8086 174.234C18.5951 169.091 17.4883 163.004 17.4883 155.973C17.4883 142.822 22.2734 132.568 31.8438 125.211C41.4141 117.854 54.5651 114.176 71.2969 114.176C86.0755 114.176 101.147 117.594 116.512 124.43L104.695 154.215C91.349 148.095 79.8255 145.035 70.125 145.035C65.112 145.035 61.4661 145.914 59.1875 147.672C56.9089 149.43 55.7695 151.611 55.7695 154.215C55.7695 157.014 57.2018 159.521 60.0664 161.734C62.9961 163.948 70.8737 167.984 83.6992 173.844C96.0039 179.378 104.533 185.335 109.285 191.715C114.103 198.03 116.512 206.005 116.512 215.641ZM200.789 259L171.59 156.168H170.711C172.078 173.681 172.762 187.288 172.762 196.988V259H138.582V116.227H189.949L219.734 217.594H220.516L249.715 116.227H301.18V259H265.73V196.402C265.73 193.147 265.763 189.534 265.828 185.562C265.958 181.591 266.414 171.858 267.195 156.363H266.316L237.508 259H200.789ZM331.941 116.227H381.746C401.147 116.227 415.535 119.124 424.91 124.918C434.35 130.647 439.07 139.599 439.07 151.773C439.07 159.781 437.02 166.617 432.918 172.281C428.816 177.945 423.413 181.591 416.707 183.219V184.195C425.561 186.539 431.974 190.445 435.945 195.914C439.917 201.383 441.902 208.479 441.902 217.203C441.902 230.159 437.02 240.38 427.254 247.867C417.553 255.289 404.305 259 387.508 259H331.941V116.227ZM370.516 171.012H382.137C387.671 171.012 391.935 169.872 394.93 167.594C397.99 165.315 399.52 161.93 399.52 157.438C399.52 149.43 393.465 145.426 381.355 145.426H370.516V171.012ZM370.516 199.234V229.215H384.09C396.134 229.215 402.156 224.137 402.156 213.98C402.156 209.228 400.529 205.582 397.273 203.043C394.083 200.504 389.428 199.234 383.309 199.234H370.516Z" fill="#F84F4F"/>
<path d="M597.768 286.768C598.744 285.791 598.744 284.209 597.768 283.232L581.858 267.322C580.882 266.346 579.299 266.346 578.322 267.322C577.346 268.299 577.346 269.882 578.322 270.858L592.464 285L578.322 299.142C577.346 300.118 577.346 301.701 578.322 302.678C579.299 303.654 580.882 303.654 581.858 302.678L597.768 286.768ZM16 287.5H596V282.5H16V287.5Z" fill="#F6B73D"/>
<path d="M600.723 250.445H467.555V117.277C467.555 114.913 465.642 113 463.277 113C460.913 113 459 114.913 459 117.277V254.723C459 257.087 460.913 259 463.277 259H600.723C603.087 259 605 257.087 605 254.723C605 252.358 603.087 250.445 600.723 250.445Z" fill="#F84F4F"/>
<path d="M480.387 241.891H497.781C500.145 241.891 502.059 239.978 502.059 237.613V211.664C502.059 209.3 500.145 207.387 497.781 207.387H480.387C478.022 207.387 476.109 209.3 476.109 211.664V237.613C476.109 239.978 478.022 241.891 480.387 241.891Z" fill="#F84F4F"/>
<path d="M514.891 190.277C512.526 190.277 510.613 192.19 510.613 194.555V237.613C510.613 239.978 512.526 241.891 514.891 241.891H532C534.364 241.891 536.277 239.978 536.277 237.613V194.555C536.277 192.19 534.364 190.277 532 190.277H514.891Z" fill="#F84F4F"/>
<path d="M549.109 173.168C546.745 173.168 544.832 175.081 544.832 177.445V237.613C544.832 239.978 546.745 241.891 549.109 241.891H566.219C568.583 241.891 570.496 239.978 570.496 237.613V177.445C570.496 175.081 568.583 173.168 566.219 173.168H549.109Z" fill="#F84F4F"/>
<path d="M600.723 156.059H583.328C580.964 156.059 579.051 157.972 579.051 160.336V237.613C579.051 239.978 580.964 241.891 583.328 241.891H600.723C603.087 241.891 605 239.978 605 237.613V160.336C605 157.972 603.087 156.059 600.723 156.059Z" fill="#F84F4F"/>
<path d="M476.619 188.026C477.748 190.124 480.357 190.876 482.412 189.767L582.014 136.29L579.502 141.313C578.445 143.427 579.301 145.996 581.415 147.053C583.548 148.112 586.102 147.239 587.154 145.14L595.709 128.03C596.373 126.706 596.302 125.131 595.521 123.87C594.74 122.608 593.366 121.84 591.883 121.84H570.496C568.132 121.84 566.219 123.753 566.219 126.117C566.219 128.481 568.132 130.395 570.496 130.395H574.916L478.361 182.232C476.281 183.356 475.499 185.95 476.619 188.026V188.026Z" fill="#F84F4F"/>
</svg>
